<svg width="154" height="94" viewBox="0 0 154 94" fill="none" xmlns="http://www.w3.org/2000/svg">
  <mask id="path-1-outside-1_1_3" maskUnits="userSpaceOnUse" x="-12" y="-8" width="174" height="110" fill="black">
  <rect fill="white" x="-12" y="-8" width="174" height="110"/>
  <path d="M84.5039 7.05273L54.6699 55.8027L55.5586 91.7305H22.9316L23.6934 56.0566L0.460938 8.95703L32.834 4.89453L42.9902 32.3164L54.0352 4.89453L84.5039 7.05273ZM153.947 78.7812C151.958 81.278 149.504 83.4574 146.584 85.3193C143.664 87.1813 140.533 88.7259 137.189 89.9531C133.846 91.1803 130.419 92.1113 126.906 92.7461C123.394 93.3385 120.051 93.6348 116.877 93.6348C110.741 93.6348 105.091 92.598 99.9287 90.5244C94.766 88.4508 90.3014 85.5732 86.5352 81.8916C82.8112 78.1676 79.8913 73.7454 77.7754 68.625C75.6595 63.5046 74.6016 57.9186 74.6016 51.8672C74.6016 47.2546 75.1305 42.7689 76.1885 38.4102C77.2464 34.0514 78.7487 29.9678 80.6953 26.1592C82.6842 22.3506 85.0964 18.8594 87.9316 15.6855C90.7669 12.5117 93.9831 9.78223 97.5801 7.49707C101.177 5.21191 105.113 3.45573 109.387 2.22852C113.703 0.958984 118.273 0.324219 123.098 0.324219C124.917 0.324219 126.864 0.408854 128.938 0.578125C131.011 0.705078 133.063 0.958984 135.095 1.33984C137.168 1.67839 139.178 2.16504 141.125 2.7998C143.072 3.43457 144.849 4.21745 146.457 5.14844L144.68 29.3965C142.31 28.5078 139.855 27.9154 137.316 27.6191C134.82 27.2806 132.365 27.1113 129.953 27.1113C126.568 27.1113 123.394 27.5768 120.432 28.5078C117.512 29.3965 114.951 30.7295 112.751 32.5068C110.593 34.2842 108.879 36.5059 107.609 39.1719C106.34 41.8379 105.705 44.9271 105.705 48.4395C105.705 50.64 106.001 52.777 106.594 54.8506C107.186 56.8818 108.075 58.7015 109.26 60.3096C110.487 61.8753 111.989 63.1449 113.767 64.1182C115.586 65.0915 117.681 65.5781 120.051 65.5781C121.659 65.5781 123.309 65.3665 125.002 64.9434C126.737 64.5202 128.218 63.8008 129.445 62.7852L129.699 57.834L114.465 57.5801L115.227 38.5371C121.532 38.3255 127.837 38.1562 134.143 38.0293C140.448 37.86 146.796 37.6484 153.186 37.3945L153.947 78.7812Z"/>
  </mask>
  <path d="M84.5039 7.05273L54.6699 55.8027L55.5586 91.7305H22.9316L23.6934 56.0566L0.460938 8.95703L32.834 4.89453L42.9902 32.3164L54.0352 4.89453L84.5039 7.05273ZM153.947 78.7812C151.958 81.278 149.504 83.4574 146.584 85.3193C143.664 87.1813 140.533 88.7259 137.189 89.9531C133.846 91.1803 130.419 92.1113 126.906 92.7461C123.394 93.3385 120.051 93.6348 116.877 93.6348C110.741 93.6348 105.091 92.598 99.9287 90.5244C94.766 88.4508 90.3014 85.5732 86.5352 81.8916C82.8112 78.1676 79.8913 73.7454 77.7754 68.625C75.6595 63.5046 74.6016 57.9186 74.6016 51.8672C74.6016 47.2546 75.1305 42.7689 76.1885 38.4102C77.2464 34.0514 78.7487 29.9678 80.6953 26.1592C82.6842 22.3506 85.0964 18.8594 87.9316 15.6855C90.7669 12.5117 93.9831 9.78223 97.5801 7.49707C101.177 5.21191 105.113 3.45573 109.387 2.22852C113.703 0.958984 118.273 0.324219 123.098 0.324219C124.917 0.324219 126.864 0.408854 128.938 0.578125C131.011 0.705078 133.063 0.958984 135.095 1.33984C137.168 1.67839 139.178 2.16504 141.125 2.7998C143.072 3.43457 144.849 4.21745 146.457 5.14844L144.68 29.3965C142.31 28.5078 139.855 27.9154 137.316 27.6191C134.82 27.2806 132.365 27.1113 129.953 27.1113C126.568 27.1113 123.394 27.5768 120.432 28.5078C117.512 29.3965 114.951 30.7295 112.751 32.5068C110.593 34.2842 108.879 36.5059 107.609 39.1719C106.34 41.8379 105.705 44.9271 105.705 48.4395C105.705 50.64 106.001 52.777 106.594 54.8506C107.186 56.8818 108.075 58.7015 109.26 60.3096C110.487 61.8753 111.989 63.1449 113.767 64.1182C115.586 65.0915 117.681 65.5781 120.051 65.5781C121.659 65.5781 123.309 65.3665 125.002 64.9434C126.737 64.5202 128.218 63.8008 129.445 62.7852L129.699 57.834L114.465 57.5801L115.227 38.5371C121.532 38.3255 127.837 38.1562 134.143 38.0293C140.448 37.86 146.796 37.6484 153.186 37.3945L153.947 78.7812Z" fill="#AAAAAA"/>
  <path d="M84.5039 7.05273L91.3275 11.2286L98.1976 0.00265959L85.0692 -0.927271L84.5039 7.05273ZM54.6699 55.8027L47.8463 51.6268L46.614 53.6405L46.6724 56.0006L54.6699 55.8027ZM55.5586 91.7305V99.7305H63.7589L63.5561 91.5326L55.5586 91.7305ZM22.9316 91.7305L14.9335 91.5597L14.759 99.7305H22.9316V91.7305ZM23.6934 56.0566L31.6915 56.2274L31.7333 54.2719L30.868 52.5177L23.6934 56.0566ZM0.460938 8.95703L-0.535171 1.01929L-11.6846 2.41843L-6.71371 12.496L0.460938 8.95703ZM32.834 4.89453L40.336 2.11602L38.1326 -3.83314L31.8379 -3.04321L32.834 4.89453ZM42.9902 32.3164L35.4882 35.0949L42.6774 54.5057L50.4109 35.3053L42.9902 32.3164ZM54.0352 4.89453L54.6004 -3.08547L48.7905 -3.49701L46.6145 1.90564L54.0352 4.89453ZM77.6803 2.87682L47.8463 51.6268L61.4935 59.9786L91.3275 11.2286L77.6803 2.87682ZM46.6724 56.0006L47.561 91.9283L63.5561 91.5326L62.6675 55.6049L46.6724 56.0006ZM55.5586 83.7305H22.9316V99.7305H55.5586V83.7305ZM30.9298 91.9012L31.6915 56.2274L15.6952 55.8859L14.9335 91.5597L30.9298 91.9012ZM30.868 52.5177L7.63559 5.41805L-6.71371 12.496L16.5187 59.5956L30.868 52.5177ZM1.45705 16.8948L33.8301 12.8323L31.8379 -3.04321L-0.535171 1.01929L1.45705 16.8948ZM25.332 7.67305L35.4882 35.0949L50.4922 29.5379L40.336 2.11602L25.332 7.67305ZM50.4109 35.3053L61.4558 7.88342L46.6145 1.90564L35.5696 29.3275L50.4109 35.3053ZM53.4699 12.8745L83.9387 15.0327L85.0692 -0.927271L54.6004 -3.08547L53.4699 12.8745ZM153.947 78.7812L160.205 83.7659L161.999 81.5134L161.946 78.634L153.947 78.7812ZM137.189 89.9531L134.433 82.4431L137.189 89.9531ZM126.906 92.7461L128.237 100.635L128.283 100.627L128.329 100.619L126.906 92.7461ZM99.9287 90.5244L96.9471 97.948L99.9287 90.5244ZM86.5352 81.8916L80.8783 87.5485L80.9104 87.5806L80.9429 87.6124L86.5352 81.8916ZM80.6953 26.1592L73.604 22.456L73.5878 22.4871L73.5718 22.5183L80.6953 26.1592ZM87.9316 15.6855L81.9656 10.3558L87.9316 15.6855ZM109.387 2.22852L111.595 9.91783L111.619 9.91071L111.644 9.90344L109.387 2.22852ZM128.938 0.578125L128.287 8.5516L128.368 8.55821L128.449 8.56317L128.938 0.578125ZM135.095 1.33984L133.62 9.20282L133.713 9.22015L133.806 9.23531L135.095 1.33984ZM146.457 5.14844L154.436 5.73326L154.802 0.735701L150.465 -1.77497L146.457 5.14844ZM144.68 29.3965L141.871 36.8871L151.877 40.6395L152.658 29.9813L144.68 29.3965ZM137.316 27.6191L136.241 35.5466L136.315 35.5566L136.389 35.5652L137.316 27.6191ZM120.432 28.5078L122.761 36.1612L122.796 36.1506L122.83 36.1398L120.432 28.5078ZM112.751 32.5068L107.724 26.2833L107.695 26.3072L107.665 26.3314L112.751 32.5068ZM106.594 54.8506L98.9016 57.0484L98.9076 57.0695L98.9138 57.0906L106.594 54.8506ZM109.26 60.3096L102.819 65.0552L102.89 65.151L102.963 65.2446L109.26 60.3096ZM113.767 64.1182L109.924 71.1349L109.959 71.1539L109.993 71.1724L113.767 64.1182ZM125.002 64.9434L123.106 57.1712L123.084 57.1766L123.062 57.1822L125.002 64.9434ZM129.445 62.7852L134.546 68.9483L137.255 66.7065L137.435 63.1949L129.445 62.7852ZM129.699 57.834L137.689 58.2437L138.113 49.9731L129.833 49.8351L129.699 57.834ZM114.465 57.5801L106.471 57.2603L106.144 65.4425L114.332 65.579L114.465 57.5801ZM115.227 38.5371L114.958 30.5416L107.53 30.7909L107.233 38.2174L115.227 38.5371ZM134.143 38.0293L134.304 46.0277L134.33 46.0271L134.357 46.0264L134.143 38.0293ZM153.186 37.3945L161.184 37.2473L161.034 29.0764L152.868 29.4008L153.186 37.3945ZM147.69 73.7966C146.296 75.5463 144.521 77.1467 142.283 78.5741L150.885 92.0646C154.487 89.768 157.62 87.0097 160.205 83.7659L147.69 73.7966ZM142.283 78.5741C139.862 80.1176 137.25 81.4088 134.433 82.4431L139.946 97.4631C143.815 96.043 147.466 94.245 150.885 92.0646L142.283 78.5741ZM134.433 82.4431C131.524 83.5109 128.543 84.3208 125.484 84.8736L128.329 100.619C132.295 99.9019 136.169 98.8498 139.946 97.4631L134.433 82.4431ZM125.576 84.8575C122.451 85.3847 119.555 85.6348 116.877 85.6348V101.635C120.547 101.635 124.337 101.292 128.237 100.635L125.576 84.8575ZM116.877 85.6348C111.657 85.6348 107.032 84.7563 102.91 83.1008L96.9471 97.948C103.151 100.44 109.825 101.635 116.877 101.635V85.6348ZM102.91 83.1008C98.6653 81.3958 95.1018 79.0784 92.1274 76.1708L80.9429 87.6124C85.5011 92.0681 90.8666 95.5059 96.9471 97.948L102.91 83.1008ZM92.192 76.2347C89.2509 73.2936 86.9041 69.7686 85.169 65.5698L70.3818 71.6802C72.8785 77.7223 76.3715 83.0417 80.8783 87.5485L92.192 76.2347ZM85.169 65.5698C83.489 61.5042 82.6016 56.9676 82.6016 51.8672H66.6016C66.6016 58.8697 67.83 65.5049 70.3818 71.6802L85.169 65.5698ZM82.6016 51.8672C82.6016 47.8722 83.059 44.0207 83.9628 40.2971L68.4142 36.5232C67.2021 41.5171 66.6016 46.637 66.6016 51.8672H82.6016ZM83.9628 40.2971C84.8803 36.517 86.1705 33.0251 87.8188 29.8001L73.5718 22.5183C71.3269 26.9105 69.6126 31.5859 68.4142 36.5232L83.9628 40.2971ZM87.7866 29.8624C89.4721 26.6347 91.5076 23.6908 93.8977 21.0153L81.9656 10.3558C78.6851 14.028 75.8963 18.0664 73.604 22.456L87.7866 29.8624ZM93.8977 21.0153C96.2418 18.3913 98.8937 16.1404 101.87 14.2496L93.2902 0.744509C89.0725 3.42401 85.2921 6.6321 81.9656 10.3558L93.8977 21.0153ZM101.87 14.2496C104.794 12.3922 108.024 10.9432 111.595 9.91783L107.179 -5.4608C102.202 -4.0317 97.5605 -1.96837 93.2902 0.744509L101.87 14.2496ZM111.644 9.90344C115.176 8.86451 118.983 8.32422 123.098 8.32422V-7.67578C117.564 -7.67578 112.23 -6.94654 107.129 -5.44641L111.644 9.90344ZM123.098 8.32422C124.672 8.32422 126.4 8.39756 128.287 8.5516L129.588 -7.39535C127.328 -7.57985 125.163 -7.67578 123.098 -7.67578V8.32422ZM128.449 8.56317C130.193 8.66999 131.917 8.88334 133.62 9.20282L136.569 -6.52313C134.21 -6.96537 131.829 -7.25983 129.426 -7.40692L128.449 8.56317ZM133.806 9.23531C135.486 9.50963 137.097 9.90101 138.645 10.4056L143.605 -4.80603C141.259 -5.57093 138.851 -6.15286 136.384 -6.55562L133.806 9.23531ZM138.645 10.4056C140.113 10.8844 141.371 11.4479 142.449 12.0718L150.465 -1.77497C148.327 -3.01298 146.03 -4.01521 143.605 -4.80603L138.645 10.4056ZM138.478 4.56362L136.701 28.8117L152.658 29.9813L154.436 5.73326L138.478 4.56362ZM147.489 21.9059C144.506 20.7874 141.419 20.0436 138.243 19.673L136.389 35.5652C138.291 35.7872 140.114 36.2282 141.871 36.8871L147.489 21.9059ZM138.391 19.6917C135.554 19.307 132.74 19.1113 129.953 19.1113V35.1113C131.99 35.1113 134.085 35.2542 136.241 35.5466L138.391 19.6917ZM129.953 19.1113C125.827 19.1113 121.838 19.68 118.033 20.8759L122.83 36.1398C124.95 35.4737 127.308 35.1113 129.953 35.1113V19.1113ZM118.102 20.8544C114.278 22.0183 110.785 23.8111 107.724 26.2833L117.778 38.7304C119.118 37.6479 120.745 36.7746 122.761 36.1612L118.102 20.8544ZM107.665 26.3314C104.553 28.8949 102.131 32.0697 100.386 35.7324L114.832 42.6113C115.627 40.9421 116.633 39.6735 117.837 38.6823L107.665 26.3314ZM100.386 35.7324C98.5174 39.6575 97.7051 43.9601 97.7051 48.4395H113.705C113.705 45.8941 114.162 44.0183 114.832 42.6113L100.386 35.7324ZM97.7051 48.4395C97.7051 51.368 98.1007 54.2455 98.9016 57.0484L114.286 52.6528C113.902 51.3085 113.705 49.9119 113.705 48.4395H97.7051ZM98.9138 57.0906C99.7534 59.9694 101.045 62.6472 102.819 65.0552L115.7 55.564C115.105 54.7558 114.619 53.7943 114.274 52.6106L98.9138 57.0906ZM102.963 65.2446C104.872 67.6795 107.214 69.651 109.924 71.1349L117.609 57.1014C116.764 56.6387 116.102 56.0712 115.556 55.3745L102.963 65.2446ZM109.993 71.1724C113.136 72.8533 116.561 73.5781 120.051 73.5781V57.5781C118.8 57.5781 118.037 57.3296 117.54 57.0639L109.993 71.1724ZM120.051 73.5781C122.366 73.5781 124.668 73.273 126.942 72.7045L123.062 57.1822C121.95 57.4601 120.952 57.5781 120.051 57.5781V73.5781ZM126.898 72.7155C129.665 72.0405 132.278 70.8249 134.546 68.9483L124.345 56.622C124.158 56.7767 123.809 56.9999 123.106 57.1712L126.898 72.7155ZM137.435 63.1949L137.689 58.2437L121.71 57.4243L121.456 62.3754L137.435 63.1949ZM129.833 49.8351L114.598 49.5812L114.332 65.579L129.566 65.8329L129.833 49.8351ZM122.458 57.8998L123.22 38.8569L107.233 38.2174L106.471 57.2603L122.458 57.8998ZM115.495 46.5326C121.764 46.3222 128.034 46.1539 134.304 46.0277L133.982 30.0309C127.64 30.1586 121.299 30.3288 114.958 30.5416L115.495 46.5326ZM134.357 46.0264C140.697 45.8562 147.079 45.6435 153.503 45.3882L152.868 29.4008C146.512 29.6534 140.198 29.8638 133.928 30.0322L134.357 46.0264ZM145.187 37.5417L145.949 78.9285L161.946 78.634L161.184 37.2473L145.187 37.5417Z" fill="#FF72AC" mask="url(#path-1-outside-1_1_3)"/>
  </svg>
  